<svg xmlns="http://www.w3.org/2000/svg" viewBox="0 0 32 32" fill="none">
  <!-- Column 1 -->
  <rect class="g" x="2" y="4" width="3" height="3" rx="0.5" opacity="0.15"/>
  <rect class="g" x="2" y="9" width="3" height="3" rx="0.5" opacity="0.3"/>
  <rect class="g" x="2" y="14" width="3" height="3" rx="0.5" opacity="0.55"/>
  <rect class="g" x="2" y="19" width="3" height="3" rx="0.5" opacity="0.8"/>
  <rect class="g" x="2" y="24" width="3" height="3" rx="0.5" opacity="1"/>

  <!-- Column 2 -->
  <rect class="g" x="8" y="1" width="3" height="3" rx="0.5" opacity="0.1"/>
  <rect class="g" x="8" y="6" width="3" height="3" rx="0.5" opacity="0.2"/>
  <rect class="g" x="8" y="11" width="3" height="3" rx="0.5" opacity="0.35"/>
  <rect class="g" x="8" y="16" width="3" height="3" rx="0.5" opacity="0.55"/>
  <rect class="g" x="8" y="21" width="3" height="3" rx="0.5" opacity="0.8"/>
  <rect class="g" x="8" y="26" width="3" height="3" rx="0.5" opacity="1"/>

  <!-- Column 3 -->
  <rect class="g" x="14" y="8" width="3" height="3" rx="0.5" opacity="0.2"/>
  <rect class="g" x="14" y="13" width="3" height="3" rx="0.5" opacity="0.4"/>
  <rect class="g" x="14" y="18" width="3" height="3" rx="0.5" opacity="0.7"/>
  <rect class="g" x="14" y="23" width="3" height="3" rx="0.5" opacity="1"/>

  <!-- Column 4 -->
  <rect class="g" x="20" y="3" width="3" height="3" rx="0.5" opacity="0.1"/>
  <rect class="g" x="20" y="8" width="3" height="3" rx="0.5" opacity="0.2"/>
  <rect class="g" x="20" y="13" width="3" height="3" rx="0.5" opacity="0.4"/>
  <rect class="g" x="20" y="18" width="3" height="3" rx="0.5" opacity="0.6"/>
  <rect class="g" x="20" y="23" width="3" height="3" rx="0.5" opacity="0.85"/>
  <rect class="g" x="20" y="28" width="3" height="3" rx="0.5" opacity="1"/>

  <!-- Column 5 -->
  <rect class="g" x="27" y="6" width="3" height="3" rx="0.5" opacity="0.2"/>
  <rect class="g" x="27" y="11" width="3" height="3" rx="0.5" opacity="0.45"/>
  <rect class="g" x="27" y="16" width="3" height="3" rx="0.5" opacity="0.7"/>
  <rect class="g" x="27" y="21" width="3" height="3" rx="0.5" opacity="1"/>

  <style>
    .g { fill: #047857; }
    @media (prefers-color-scheme: dark) {
      .g { fill: #10b981; }
    }
  </style>
</svg>
